<mxfile host="Electron" agent="Mozilla/5.0 (Windows NT 10.0; Win64; x64) AppleWebKit/537.36 (KHTML, like Gecko) draw.io/26.2.2 Chrome/134.0.6998.178 Electron/35.1.2 Safari/537.36" version="26.2.2">
  <diagram name="Page-1" id="fc2ac565-0d4e-3f0d-88b0-a54af1634ed7">
    <mxGraphModel dx="1560" dy="2419.5" grid="1" gridSize="10" guides="1" tooltips="1" connect="0" arrows="1" fold="1" page="1" pageScale="1.5" pageWidth="1169" pageHeight="827" background="none" math="0" shadow="0">
      <root>
        <mxCell id="0" style=";html=1;" />
        <mxCell id="1" style=";html=1;" parent="0" />
        <mxCell id="_oCJm_LsrpbRqxqALiYw-2" value="Сотрудник &lt;br&gt;фронт-офиса" style="shape=umlActor;verticalLabelPosition=bottom;verticalAlign=top;html=1;outlineConnect=0;" vertex="1" parent="1">
          <mxGeometry x="370" y="-830" width="30" height="60" as="geometry" />
        </mxCell>
        <mxCell id="_oCJm_LsrpbRqxqALiYw-5" value="Сотрудник &lt;br&gt;бэк-офиса&lt;br&gt;(депозиты)" style="shape=umlActor;verticalLabelPosition=bottom;verticalAlign=top;html=1;outlineConnect=0;" vertex="1" parent="1">
          <mxGeometry x="370" y="-710" width="30" height="60" as="geometry" />
        </mxCell>
        <mxCell id="_oCJm_LsrpbRqxqALiYw-6" value="Сотрудник &lt;br&gt;бэк-офиса&lt;br&gt;(кредиты)" style="shape=umlActor;verticalLabelPosition=bottom;verticalAlign=top;html=1;outlineConnect=0;" vertex="1" parent="1">
          <mxGeometry x="370" y="-580" width="30" height="60" as="geometry" />
        </mxCell>
        <mxCell id="_oCJm_LsrpbRqxqALiYw-7" value="Сотрудник &lt;br&gt;кол-центра" style="shape=umlActor;verticalLabelPosition=bottom;verticalAlign=top;html=1;outlineConnect=0;" vertex="1" parent="1">
          <mxGeometry x="370" y="-450" width="30" height="60" as="geometry" />
        </mxCell>
        <mxCell id="_oCJm_LsrpbRqxqALiYw-8" value="Сотрудник&amp;nbsp;&lt;br&gt;парнерского&lt;br&gt;кол-центра" style="shape=umlActor;verticalLabelPosition=bottom;verticalAlign=top;html=1;outlineConnect=0;" vertex="1" parent="1">
          <mxGeometry x="370" y="-330" width="30" height="60" as="geometry" />
        </mxCell>
        <mxCell id="_oCJm_LsrpbRqxqALiYw-20" value="АБС" style="whiteSpace=wrap;html=1;aspect=fixed;" vertex="1" parent="1">
          <mxGeometry x="560" y="-830" width="330" height="330" as="geometry" />
        </mxCell>
        <mxCell id="_oCJm_LsrpbRqxqALiYw-21" value="" style="endArrow=classic;html=1;rounded=0;entryX=-0.004;entryY=0.522;entryDx=0;entryDy=0;entryPerimeter=0;" edge="1" parent="1" target="_oCJm_LsrpbRqxqALiYw-20">
          <mxGeometry width="50" height="50" relative="1" as="geometry">
            <mxPoint x="410" y="-810" as="sourcePoint" />
            <mxPoint x="730" y="-640" as="targetPoint" />
            <Array as="points">
              <mxPoint x="480" y="-810" />
            </Array>
          </mxGeometry>
        </mxCell>
        <mxCell id="_oCJm_LsrpbRqxqALiYw-34" value="создает договора&lt;br&gt;и оформляет депозиты" style="edgeLabel;html=1;align=center;verticalAlign=middle;resizable=0;points=[];" vertex="1" connectable="0" parent="_oCJm_LsrpbRqxqALiYw-21">
          <mxGeometry x="-0.7855" y="-1" relative="1" as="geometry">
            <mxPoint x="44" y="19" as="offset" />
          </mxGeometry>
        </mxCell>
        <mxCell id="_oCJm_LsrpbRqxqALiYw-22" value="" style="endArrow=classic;html=1;rounded=0;entryX=-0.011;entryY=0.525;entryDx=0;entryDy=0;entryPerimeter=0;" edge="1" parent="1" target="_oCJm_LsrpbRqxqALiYw-20">
          <mxGeometry width="50" height="50" relative="1" as="geometry">
            <mxPoint x="410" y="-690" as="sourcePoint" />
            <mxPoint x="560" y="-660" as="targetPoint" />
            <Array as="points">
              <mxPoint x="480" y="-690" />
            </Array>
          </mxGeometry>
        </mxCell>
        <mxCell id="_oCJm_LsrpbRqxqALiYw-36" value="подтверждает &lt;br&gt;ставки депозитов" style="edgeLabel;html=1;align=center;verticalAlign=middle;resizable=0;points=[];" vertex="1" connectable="0" parent="_oCJm_LsrpbRqxqALiYw-22">
          <mxGeometry x="-0.6823" y="2" relative="1" as="geometry">
            <mxPoint x="18" y="3" as="offset" />
          </mxGeometry>
        </mxCell>
        <mxCell id="_oCJm_LsrpbRqxqALiYw-23" value="" style="endArrow=classic;html=1;rounded=0;entryX=-0.004;entryY=0.539;entryDx=0;entryDy=0;entryPerimeter=0;" edge="1" parent="1" target="_oCJm_LsrpbRqxqALiYw-20">
          <mxGeometry width="50" height="50" relative="1" as="geometry">
            <mxPoint x="410" y="-560" as="sourcePoint" />
            <mxPoint x="566" y="-641" as="targetPoint" />
            <Array as="points">
              <mxPoint x="480" y="-560" />
            </Array>
          </mxGeometry>
        </mxCell>
        <mxCell id="_oCJm_LsrpbRqxqALiYw-25" value="Система кол-центра" style="rounded=0;whiteSpace=wrap;html=1;" vertex="1" parent="1">
          <mxGeometry x="580" y="-440" width="120" height="60" as="geometry" />
        </mxCell>
        <mxCell id="_oCJm_LsrpbRqxqALiYw-26" value="Система партнерского кол-центра" style="rounded=0;whiteSpace=wrap;html=1;" vertex="1" parent="1">
          <mxGeometry x="700" y="-320" width="120" height="60" as="geometry" />
        </mxCell>
        <mxCell id="_oCJm_LsrpbRqxqALiYw-27" value="" style="endArrow=classic;html=1;rounded=0;entryX=-0.009;entryY=0.494;entryDx=0;entryDy=0;entryPerimeter=0;" edge="1" parent="1" target="_oCJm_LsrpbRqxqALiYw-25">
          <mxGeometry width="50" height="50" relative="1" as="geometry">
            <mxPoint x="420" y="-410" as="sourcePoint" />
            <mxPoint x="720" y="-520" as="targetPoint" />
          </mxGeometry>
        </mxCell>
        <mxCell id="_oCJm_LsrpbRqxqALiYw-29" value="" style="endArrow=classic;html=1;rounded=0;exitX=1.009;exitY=0.507;exitDx=0;exitDy=0;exitPerimeter=0;entryX=0.482;entryY=1.004;entryDx=0;entryDy=0;entryPerimeter=0;" edge="1" parent="1" source="_oCJm_LsrpbRqxqALiYw-25" target="_oCJm_LsrpbRqxqALiYw-20">
          <mxGeometry width="50" height="50" relative="1" as="geometry">
            <mxPoint x="650" y="-480" as="sourcePoint" />
            <mxPoint x="700" y="-530" as="targetPoint" />
            <Array as="points">
              <mxPoint x="720" y="-410" />
            </Array>
          </mxGeometry>
        </mxCell>
        <mxCell id="_oCJm_LsrpbRqxqALiYw-32" value="Заявки &lt;br&gt;из кол-центра" style="edgeLabel;html=1;align=center;verticalAlign=middle;resizable=0;points=[];" vertex="1" connectable="0" parent="_oCJm_LsrpbRqxqALiYw-29">
          <mxGeometry x="0.3379" relative="1" as="geometry">
            <mxPoint as="offset" />
          </mxGeometry>
        </mxCell>
        <mxCell id="_oCJm_LsrpbRqxqALiYw-30" value="" style="endArrow=classic;html=1;rounded=0;entryX=0.004;entryY=0.658;entryDx=0;entryDy=0;entryPerimeter=0;" edge="1" parent="1" target="_oCJm_LsrpbRqxqALiYw-26">
          <mxGeometry width="50" height="50" relative="1" as="geometry">
            <mxPoint x="420" y="-280" as="sourcePoint" />
            <mxPoint x="700" y="-490" as="targetPoint" />
          </mxGeometry>
        </mxCell>
        <mxCell id="_oCJm_LsrpbRqxqALiYw-31" value="" style="endArrow=classic;html=1;rounded=0;exitX=0.741;exitY=-0.049;exitDx=0;exitDy=0;exitPerimeter=0;entryX=0.683;entryY=1.008;entryDx=0;entryDy=0;entryPerimeter=0;" edge="1" parent="1" source="_oCJm_LsrpbRqxqALiYw-26" target="_oCJm_LsrpbRqxqALiYw-20">
          <mxGeometry width="50" height="50" relative="1" as="geometry">
            <mxPoint x="650" y="-440" as="sourcePoint" />
            <mxPoint x="700" y="-490" as="targetPoint" />
          </mxGeometry>
        </mxCell>
        <mxCell id="_oCJm_LsrpbRqxqALiYw-33" value="Заявки &lt;br&gt;из кол-центра" style="edgeLabel;html=1;align=center;verticalAlign=middle;resizable=0;points=[];" vertex="1" connectable="0" parent="1">
          <mxGeometry x="789.9950823964534" y="-410.0045671090508" as="geometry" />
        </mxCell>
        <mxCell id="_oCJm_LsrpbRqxqALiYw-37" value="анализирует &lt;br&gt;кредиты" style="edgeLabel;html=1;align=center;verticalAlign=middle;resizable=0;points=[];" vertex="1" connectable="0" parent="1">
          <mxGeometry x="470.00444444444446" y="-560" as="geometry">
            <mxPoint x="-6" y="-2" as="offset" />
          </mxGeometry>
        </mxCell>
      </root>
    </mxGraphModel>
  </diagram>
</mxfile>
